<svg width="150" height="121" viewBox="0 0 150 121" fill="none" xmlns="http://www.w3.org/2000/svg">
<g clip-path="url(#clip0_207_34)">
<path d="M61.875 13.75C61.875 23.375 49.5 31.625 49.5 31.625C49.5 31.625 37.125 23.375 37.125 13.75C37.125 10.4679 38.4288 7.32032 40.7496 4.99955C43.0703 2.67879 46.2179 1.375 49.5 1.375C52.7821 1.375 55.9297 2.67879 58.2504 4.99955C60.5712 7.32032 61.875 10.4679 61.875 13.75Z" stroke="#202020" stroke-width="3" stroke-linecap="round" stroke-linejoin="round"/>
<path d="M49.5 17.875C51.7782 17.875 53.625 16.0282 53.625 13.75C53.625 11.4718 51.7782 9.625 49.5 9.625C47.2218 9.625 45.375 11.4718 45.375 13.75C45.375 16.0282 47.2218 17.875 49.5 17.875Z" stroke="#202020" stroke-width="3" stroke-linecap="round" stroke-linejoin="round"/>
</g>
<g clip-path="url(#clip1_207_34)">
<path d="M145.875 83.75C145.875 93.375 133.5 101.625 133.5 101.625C133.5 101.625 121.125 93.375 121.125 83.75C121.125 80.4679 122.429 77.3203 124.75 74.9996C127.07 72.6788 130.218 71.375 133.5 71.375C136.782 71.375 139.93 72.6788 142.25 74.9996C144.571 77.3203 145.875 80.4679 145.875 83.75Z" stroke="#202020" stroke-width="3" stroke-linecap="round" stroke-linejoin="round"/>
<path d="M133.5 87.875C135.778 87.875 137.625 86.0282 137.625 83.75C137.625 81.4718 135.778 79.625 133.5 79.625C131.222 79.625 129.375 81.4718 129.375 83.75C129.375 86.0282 131.222 87.875 133.5 87.875Z" stroke="#202020" stroke-width="3" stroke-linecap="round" stroke-linejoin="round"/>
</g>
<path d="M50.9386 41.9012C68.9868 31.0028 101.259 12.5438 124.435 15.2716C137.585 16.8194 148.408 24.635 144 34.8922C140.182 43.7743 122.43 48.6238 109.895 48.6238C82.645 49.5829 63.7666 51.0942 35.007 58.4112C9.11444 64.9988 -12.819 89.3214 14.7763 101.088C24.4195 105.2 35.6657 108.042 48.6627 104.671C64.3201 100.608 83.3077 94.9466 83.3077 77.7249C83.3077 53.2497 36.2752 70.8587 35.007 97.4171C34.0102 118.291 66.6238 119 77.9972 119C95.3762 119 112.758 110.589 129.459 110.589" stroke="#202020" stroke-width="3" stroke-linecap="round" stroke-dasharray="20 6"/>
<defs>
<clipPath id="clip0_207_34">
<rect width="33" height="33" fill="white" transform="translate(33)"/>
</clipPath>
<clipPath id="clip1_207_34">
<rect width="33" height="33" fill="white" transform="translate(117 70)"/>
</clipPath>
</defs>
</svg>
